<svg width="64" height="64" viewBox="0 0 64 64" fill="none" xmlns="http://www.w3.org/2000/svg">
<path d="M51.9999 10.5H41.1199C40.7221 10.5 40.3406 10.658 40.0593 10.9393C39.778 11.2206 39.6199 11.6022 39.6199 12C39.6199 12.3978 39.778 12.7794 40.0593 13.0607C40.3406 13.342 40.7221 13.5 41.1199 13.5H48.3799L36.7999 25.08C36.6526 25.2173 36.5343 25.3829 36.4524 25.5669C36.3704 25.7509 36.3263 25.9495 36.3227 26.151C36.3192 26.3524 36.3562 26.5524 36.4317 26.7392C36.5071 26.926 36.6194 27.0956 36.7618 27.2381C36.9043 27.3805 37.074 27.4928 37.2607 27.5682C37.4475 27.6437 37.6476 27.6807 37.849 27.6772C38.0504 27.6736 38.249 27.6295 38.433 27.5476C38.617 27.4656 38.7826 27.3474 38.9199 27.2L50.4999 15.62V22.88C50.4999 23.2778 50.658 23.6594 50.9393 23.9407C51.2206 24.222 51.6021 24.38 51.9999 24.38C52.3977 24.38 52.7793 24.222 53.0606 23.9407C53.3419 23.6594 53.4999 23.2778 53.4999 22.88V12C53.4999 11.6022 53.3419 11.2206 53.0606 10.9393C52.7793 10.658 52.3977 10.5 51.9999 10.5Z" fill="url(#paint0_linear_120:1402)" id="id_101"></path>
<path d="M15.62 13.5H22.88C23.2778 13.5 23.6594 13.342 23.9407 13.0607C24.222 12.7794 24.38 12.3978 24.38 12C24.38 11.6022 24.222 11.2206 23.9407 10.9393C23.6594 10.658 23.2778 10.5 22.88 10.5H12C11.6022 10.5 11.2206 10.658 10.9393 10.9393C10.658 11.2206 10.5 11.6022 10.5 12V22.88C10.5 23.2778 10.658 23.6594 10.9393 23.9407C11.2206 24.222 11.6022 24.38 12 24.38C12.3978 24.38 12.7794 24.222 13.0607 23.9407C13.342 23.6594 13.5 23.2778 13.5 22.88V15.62L25.08 27.2C25.2173 27.3474 25.3829 27.4656 25.5669 27.5476C25.7509 27.6295 25.9495 27.6736 26.151 27.6772C26.3524 27.6807 26.5524 27.6437 26.7392 27.5682C26.926 27.4928 27.0956 27.3805 27.2381 27.2381C27.3805 27.0956 27.4928 26.926 27.5682 26.7392C27.6437 26.5524 27.6807 26.3524 27.6772 26.151C27.6736 25.9495 27.6295 25.7509 27.5476 25.5669C27.4656 25.3829 27.3474 25.2173 27.2 25.08L15.62 13.5Z" fill="url(#paint1_linear_120:1402)" id="id_102"></path>
<path d="M25.08 36.8L13.5 48.38V41.12C13.5 40.7222 13.342 40.3407 13.0607 40.0594C12.7794 39.7781 12.3978 39.62 12 39.62C11.6022 39.62 11.2206 39.7781 10.9393 40.0594C10.658 40.3407 10.5 40.7222 10.5 41.12V52C10.5 52.3979 10.658 52.7794 10.9393 53.0607C11.2206 53.342 11.6022 53.5 12 53.5H22.88C23.2778 53.5 23.6594 53.342 23.9407 53.0607C24.222 52.7794 24.38 52.3979 24.38 52C24.38 51.6022 24.222 51.2207 23.9407 50.9394C23.6594 50.6581 23.2778 50.5 22.88 50.5H15.62L27.2 38.92C27.465 38.6357 27.6092 38.2596 27.6024 37.871C27.5955 37.4824 27.4381 37.1116 27.1632 36.8368C26.8884 36.562 26.5176 36.4046 26.129 36.3977C25.7404 36.3908 25.3643 36.5351 25.08 36.8V36.8Z" fill="url(#paint2_linear_120:1402)" id="id_103"></path>
<path d="M52 39.62C51.6022 39.62 51.2207 39.7781 50.9394 40.0594C50.6581 40.3407 50.5 40.7222 50.5 41.12V48.38L38.92 36.8C38.6357 36.5351 38.2596 36.3908 37.871 36.3977C37.4824 36.4046 37.1116 36.562 36.8368 36.8368C36.562 37.1116 36.4046 37.4824 36.3977 37.871C36.3908 38.2596 36.5351 38.6357 36.8 38.92L48.38 50.5H41.12C40.7222 50.5 40.3407 50.6581 40.0594 50.9394C39.7781 51.2207 39.62 51.6022 39.62 52C39.62 52.3979 39.7781 52.7794 40.0594 53.0607C40.3407 53.342 40.7222 53.5 41.12 53.5H52C52.3979 53.5 52.7794 53.342 53.0607 53.0607C53.342 52.7794 53.5 52.3979 53.5 52V41.12C53.5 40.7222 53.342 40.3407 53.0607 40.0594C52.7794 39.7781 52.3979 39.62 52 39.62Z" fill="url(#paint3_linear_120:1402)" id="id_104"></path>
<defs>
<linearGradient id="paint0_linear_120:1402" x1="36.3599" y1="19.07" x2="53.4999" y2="19.07" gradientUnits="userSpaceOnUse">
<stop stop-color="#9eefff" id="id_105"></stop>
<stop offset="0.18" stop-color="#9eefff" id="id_106"></stop>
<stop offset="0.57" stop-color="#9cefff" id="id_107"></stop>
<stop offset="0.85" stop-color="#9cecfc" id="id_108"></stop>
<stop offset="1" stop-color="#9eefff" id="id_109"></stop>
</linearGradient>
<linearGradient id="paint1_linear_120:1402" x1="190.863" y1="338.073" x2="485.284" y2="338.073" gradientUnits="userSpaceOnUse">
<stop stop-color="#9cecfc" id="id_110"></stop>
<stop offset="0.18" stop-color="#a1efff" id="id_111"></stop>
<stop offset="0.57" stop-color="#9beafa" id="id_112"></stop>
<stop offset="0.85" stop-color="#9eefff" id="id_113"></stop>
<stop offset="1" stop-color="#9cefff" id="id_114"></stop>
</linearGradient>
<linearGradient id="paint2_linear_120:1402" x1="190.077" y1="804.645" x2="483.386" y2="804.645" gradientUnits="userSpaceOnUse">
<stop stop-color="#9eefff" id="id_115"></stop>
<stop offset="0.18" stop-color="#9beafa" id="id_116"></stop>
<stop offset="0.57" stop-color="#9eefff" id="id_117"></stop>
<stop offset="0.85" stop-color="#9cefff" id="id_118"></stop>
<stop offset="1" stop-color="#9eefff" id="id_119"></stop>
</linearGradient>
<linearGradient id="paint3_linear_120:1402" x1="658.247" y1="804.816" x2="53.5" y2="804.816" gradientUnits="userSpaceOnUse">
<stop stop-color="#99eeff" id="id_120"></stop>
<stop offset="0.18" stop-color="#9cefff" id="id_121"></stop>
<stop offset="0.57" stop-color="#99eeff" id="id_122"></stop>
<stop offset="0.85" stop-color="#97ebfc" id="id_123"></stop>
<stop offset="1" stop-color="#94ebfc" id="id_124"></stop>
</linearGradient>
</defs>
</svg>