<svg width="64" height="64" viewBox="0 0 64 64" fill="none" xmlns="http://www.w3.org/2000/svg">
<path d="M37.8599 27.6399H48.7399C49.1377 27.6399 49.5192 27.4819 49.8005 27.2006C50.0818 26.9193 50.2399 26.5378 50.2399 26.1399C50.2399 25.7421 50.0818 25.3606 49.8005 25.0793C49.5192 24.798 49.1377 24.6399 48.7399 24.6399H41.4799L53.0599 13.0599C53.3248 12.7756 53.4691 12.3995 53.4622 12.0109C53.4554 11.6223 53.2979 11.2515 53.0231 10.9767C52.7483 10.7019 52.3775 10.5444 51.9889 10.5376C51.6003 10.5307 51.2242 10.675 50.9399 10.9399L39.3599 22.5199V15.2599C39.3599 14.8621 39.2018 14.4806 38.9205 14.1993C38.6392 13.918 38.2577 13.7599 37.8599 13.7599C37.462 13.7599 37.0805 13.918 36.7992 14.1993C36.5179 14.4806 36.3599 14.8621 36.3599 15.2599V26.1399C36.3599 26.5378 36.5179 26.9193 36.7992 27.2006C37.0805 27.4819 37.462 27.6399 37.8599 27.6399Z" fill="url(#paint0_linear_120:1428)" id="id_101"></path>
<path d="M26.1399 13.7599C25.7421 13.7599 25.3606 13.918 25.0793 14.1993C24.798 14.4806 24.6399 14.8621 24.6399 15.2599V22.5199L13.0599 10.9399C12.7756 10.675 12.3995 10.5307 12.0109 10.5376C11.6223 10.5444 11.2515 10.7019 10.9767 10.9767C10.7019 11.2515 10.5444 11.6223 10.5376 12.0109C10.5307 12.3995 10.675 12.7756 10.9399 13.0599L22.5199 24.6399H15.2599C14.8621 24.6399 14.4806 24.798 14.1993 25.0793C13.918 25.3606 13.7599 25.7421 13.7599 26.1399C13.7599 26.5378 13.918 26.9193 14.1993 27.2006C14.4806 27.4819 14.8621 27.6399 15.2599 27.6399H26.1399C26.5378 27.6399 26.9193 27.4819 27.2006 27.2006C27.4819 26.9193 27.6399 26.5378 27.6399 26.1399V15.2599C27.6399 14.8621 27.4819 14.4806 27.2006 14.1993C26.9193 13.918 26.5378 13.7599 26.1399 13.7599V13.7599Z" fill="url(#paint1_linear_120:1428)" id="id_102"></path>
<path d="M26.1399 36.3599H15.2599C14.8621 36.3599 14.4806 36.5179 14.1993 36.7992C13.918 37.0805 13.7599 37.462 13.7599 37.8599C13.7599 38.2577 13.918 38.6392 14.1993 38.9205C14.4806 39.2018 14.8621 39.3599 15.2599 39.3599H22.5199L10.9399 50.9399C10.675 51.2242 10.5307 51.6003 10.5376 51.9889C10.5444 52.3775 10.7019 52.7483 10.9767 53.0231C11.2515 53.2979 11.6223 53.4554 12.0109 53.4622C12.3995 53.4691 12.7756 53.3248 13.0599 53.0599L24.6399 41.4799V48.7399C24.6399 49.1377 24.798 49.5192 25.0793 49.8005C25.3606 50.0818 25.7421 50.2399 26.1399 50.2399C26.5378 50.2399 26.9193 50.0818 27.2006 49.8005C27.4819 49.5192 27.6399 49.1377 27.6399 48.7399V37.8599C27.6399 37.462 27.4819 37.0805 27.2006 36.7992C26.9193 36.5179 26.5378 36.3599 26.1399 36.3599Z" fill="url(#paint2_linear_120:1428)" id="id_103"></path>
<path d="M41.4799 39.3599H48.7399C49.1377 39.3599 49.5192 39.2018 49.8005 38.9205C50.0818 38.6392 50.2399 38.2577 50.2399 37.8599C50.2399 37.462 50.0818 37.0805 49.8005 36.7992C49.5192 36.5179 49.1377 36.3599 48.7399 36.3599H37.8599C37.462 36.3599 37.0805 36.5179 36.7992 36.7992C36.5179 37.0805 36.3599 37.462 36.3599 37.8599V48.7399C36.3599 49.1377 36.5179 49.5192 36.7992 49.8005C37.0805 50.0818 37.462 50.2399 37.8599 50.2399C38.2577 50.2399 38.6392 50.0818 38.9205 49.8005C39.2018 49.5192 39.3599 49.1377 39.3599 48.7399V41.4799L50.9399 53.0599C51.2242 53.3248 51.6003 53.4691 51.9889 53.4622C52.3775 53.4554 52.7483 53.2979 53.0231 53.0231C53.2979 52.7483 53.4554 52.3775 53.4622 51.9889C53.4691 51.6003 53.3248 51.2242 53.0599 50.9399L41.4799 39.3599Z" fill="url(#paint3_linear_120:1428)" id="id_104"></path>
<defs>
<linearGradient id="paint0_linear_120:1428" x1="36.3599" y1="19.0699" x2="53.4999" y2="19.0699" gradientUnits="userSpaceOnUse">
<stop stop-color="#9eefff" id="id_105"></stop>
<stop offset="0.18" stop-color="#ffffff" id="id_106"></stop>
<stop offset="0.57" stop-color="#a1efff" id="id_107"></stop>
<stop offset="0.85" stop-color="#ffffff" id="id_108"></stop>
<stop offset="1" stop-color="#9eefff" id="id_109"></stop>
</linearGradient>
<linearGradient id="paint1_linear_120:1428" x1="190.114" y1="336.684" x2="483.253" y2="336.684" gradientUnits="userSpaceOnUse">
<stop stop-color="#9eefff" id="id_110"></stop>
<stop offset="0.18" stop-color="#9cefff" id="id_111"></stop>
<stop offset="0.57" stop-color="#a1efff" id="id_112"></stop>
<stop offset="0.85" stop-color="#a1efff" id="id_113"></stop>
<stop offset="1" stop-color="#9cecfc" id="id_114"></stop>
</linearGradient>
<linearGradient id="paint2_linear_120:1428" x1="190.114" y1="804.779" x2="483.253" y2="804.779" gradientUnits="userSpaceOnUse">
<stop stop-color="#a1efff" id="id_115"></stop>
<stop offset="0.18" stop-color="#a3f0ff" id="id_116"></stop>
<stop offset="0.57" stop-color="#a3f0ff" id="id_117"></stop>
<stop offset="0.85" stop-color="#a3f0ff" id="id_118"></stop>
<stop offset="1" stop-color="#9fedfc" id="id_119"></stop>
</linearGradient>
<linearGradient id="paint3_linear_120:1428" x1="658.21" y1="804.779" x2="53.4624" y2="804.779" gradientUnits="userSpaceOnUse">
<stop stop-color="#a1efff" id="id_120"></stop>
<stop offset="0.18" stop-color="#9fedfc" id="id_121"></stop>
<stop offset="0.57" stop-color="#a1efff" id="id_122"></stop>
<stop offset="0.85" stop-color="#a3f0ff" id="id_123"></stop>
<stop offset="1" stop-color="#a1efff" id="id_124"></stop>
</linearGradient>
</defs>
</svg>